<?xml version="1.0" encoding="UTF-8"?>
<svg version="1.1" xmlns="http://www.w3.org/2000/svg" width="512" height="512">
<path d="M0 0 C0.78117187 0.67417969 1.56234375 1.34835938 2.3671875 2.04296875 C3.04523438 2.62433594 3.72328125 3.20570313 4.421875 3.8046875 C23.39201464 21.36539909 31.98183159 48.34024114 36.6171875 72.98046875 C36.76833008 73.77606201 36.91947266 74.57165527 37.07519531 75.39135742 C40.08010798 92.69673764 40.6594237 110.10146841 40.59423828 127.62231445 C40.59367237 129.79287206 40.59399423 131.96343004 40.59512329 134.13398743 C40.59569077 139.95490687 40.58403579 145.77574177 40.56997538 151.59664178 C40.55736584 157.70644707 40.55628954 163.81625487 40.55392456 169.92607117 C40.54773955 181.46391239 40.53136958 193.00171514 40.51122558 204.53953952 C40.48456461 220.15319069 40.47386983 235.76685258 40.46222115 251.38052082 C40.44348644 275.93469888 40.40362103 300.4887958 40.3671875 325.04296875 C5.0571875 325.04296875 -30.2528125 325.04296875 -66.6328125 325.04296875 C-66.67019531 311.04246094 -66.70757812 297.04195313 -66.74609375 282.6171875 C-66.77638423 273.72590172 -66.80741895 264.83462874 -66.84179688 255.94335938 C-66.89617613 241.84351794 -66.94759365 227.74371205 -66.97924805 213.64379883 C-67.00232114 203.37252366 -67.03582205 193.10134266 -67.08151406 182.83014232 C-67.10532138 177.39855987 -67.1241316 171.96706995 -67.13042641 166.53543663 C-67.1365343 161.40788263 -67.15673633 156.28056502 -67.18708801 151.15309906 C-67.19577785 149.28569248 -67.19960998 147.41825488 -67.19782066 145.55082893 C-67.18398461 124.42042818 -68.48927771 99.1148573 -83.734375 82.79296875 C-94.44103932 72.78536499 -106.90514139 69.45868402 -121.3828125 69.60546875 C-122.95107788 69.61574097 -122.95107788 69.61574097 -124.55102539 69.6262207 C-140.37976128 69.95234714 -153.56659319 74.41963244 -165.20703125 85.3359375 C-181.66403559 103.70100031 -183.08838387 130.28867635 -183.06518555 153.7331543 C-183.07423147 155.61771271 -183.08456546 157.50226529 -183.09606934 159.3868103 C-183.12333357 164.43719313 -183.13288163 169.48746343 -183.13892341 174.53791022 C-183.14838783 179.84032521 -183.17459685 185.14265873 -183.19892883 190.44502258 C-183.24237769 200.45646739 -183.27105677 210.46789619 -183.29425222 220.47940618 C-183.32651396 234.02868422 -183.38195109 247.57786696 -183.43599796 261.12707233 C-183.52038005 282.43234256 -183.57410881 303.73757644 -183.6328125 325.04296875 C-218.9428125 325.04296875 -254.2528125 325.04296875 -290.6328125 325.04296875 C-290.6328125 212.18296875 -290.6328125 99.32296875 -290.6328125 -16.95703125 C-256.9728125 -16.95703125 -223.3128125 -16.95703125 -188.6328125 -16.95703125 C-188.3028125 -2.10703125 -187.9728125 12.74296875 -187.6328125 28.04296875 C-184.6628125 23.75296875 -181.6928125 19.46296875 -178.6328125 15.04296875 C-171.6643664 6.31316128 -163.74165611 -0.56243902 -154.6328125 -6.95703125 C-153.47265625 -7.78460938 -153.47265625 -7.78460938 -152.2890625 -8.62890625 C-109.31420226 -36.77441331 -39.23379936 -32.57260913 0 0 Z " fill="#1f1f1f" transform="translate(471.6328125,186.95703125)"/>
<path d="M0 0 C35.31 0 70.62 0 107 0 C107 112.86 107 225.72 107 342 C71.69 342 36.38 342 0 342 C0 229.14 0 116.28 0 0 Z " fill="#1f1f1f" transform="translate(8,170)"/>
<path d="M0 0 C1.42119141 0.63615234 1.42119141 0.63615234 2.87109375 1.28515625 C9.91019793 4.79006388 15.44888428 9.47835923 21 15 C21.82951172 15.77730469 21.82951172 15.77730469 22.67578125 16.5703125 C26.4632134 20.47004048 28.80399678 25.13508873 31.25 29.9375 C31.5917627 30.60595947 31.93352539 31.27441895 32.28564453 31.96313477 C38.7183839 45.10265397 39.42804079 62.21634628 35.375 76.25 C28.94962259 93.34689584 18.13873307 106.8317452 1.5 114.875 C-14.93166387 121.63960236 -31.2969418 122.10669896 -48 116 C-64.6916055 108.83089007 -75.3710048 96.51122687 -82.7734375 80.23828125 C-87.90011373 66.70320293 -88.3929613 49.40389738 -83.25390625 35.77734375 C-82.84011719 34.86082031 -82.42632812 33.94429687 -82 33 C-81.57589844 32.05253906 -81.15179688 31.10507812 -80.71484375 30.12890625 C-77.20993612 23.08980207 -72.52164077 17.55111572 -67 12 C-66.48179688 11.44699219 -65.96359375 10.89398438 -65.4296875 10.32421875 C-61.52995952 6.5367866 -56.86491127 4.19600322 -52.0625 1.75 C-51.39404053 1.4082373 -50.72558105 1.06647461 -50.03686523 0.71435547 C-35.18912452 -6.55468115 -15.08282176 -6.809544 0 0 Z " fill="#1f1f1f" transform="translate(86,4)"/>
</svg>
