<?xml version="1.0" encoding="UTF-8"?>
<svg version="1.1" xmlns="http://www.w3.org/2000/svg" width="500" height="500">
<path d="M0 0 C0.77230957 0.27908203 1.54461914 0.55816406 2.34033203 0.84570312 C12.70212751 4.6953625 22.2078523 9.20882385 31 16 C31.53318848 16.41121094 32.06637695 16.82242188 32.61572266 17.24609375 C40.4802007 23.39000357 47.01602333 29.96235087 53 38 C53.90298828 39.14662109 53.90298828 39.14662109 54.82421875 40.31640625 C71.25148355 62.13329051 76.37699886 89.84519339 72.74609375 116.5 C69.55403806 137.20135417 59.92988066 153.84100062 47 170 C47.74058151 170.74058151 48.48116302 171.48116302 49.2441864 172.2441864 C113 236 113 236 113.3125 239.8125 C113.25377389 242.78617685 113.07349312 243.87751147 111.5 246.5 C108.67904867 248.1925708 106.42352526 248.74968289 103.12365723 248.5748291 C100.51713774 247.8692994 99.25695571 246.81149477 97.27148438 244.99023438 C96.57595459 244.3539209 95.8804248 243.71760742 95.16381836 243.06201172 C91.51851043 239.58821382 87.94691983 236.04896752 84.40625 232.46875 C83.61528931 231.67400269 82.82432861 230.87925537 82.00939941 230.0604248 C78.65981427 226.69464452 75.3162673 223.32288952 71.97216797 219.95166016 C69.51479061 217.47609773 67.05433942 215.00361917 64.59375 212.53125 C63.85080688 211.78000854 63.10786377 211.02876709 62.34240723 210.25476074 C58.26816306 206.16167667 54.0959816 202.26181139 49.72009277 198.49301147 C47.78926361 196.81708437 45.95530326 195.0702581 44.15625 193.25390625 C43.55039062 192.64482422 42.94453125 192.03574219 42.3203125 191.40820312 C41.71960938 190.79912109 41.11890625 190.19003906 40.5 189.5625 C39.86835938 188.92634766 39.23671875 188.29019531 38.5859375 187.63476562 C37.05494226 186.09217194 35.52712333 184.54642686 34 183 C33.3915625 183.4125 32.783125 183.825 32.15625 184.25 C6.3519768 201.25046235 -22.79897229 209.45564024 -53.76660156 203.87060547 C-81.88392334 197.96189292 -106.96042696 181.61183966 -122.87109375 157.50390625 C-137.85216259 133.29949498 -143.77340695 104.33012285 -137.4375 76.1875 C-132.81606314 57.76946593 -123.20888191 41.54624038 -110 28 C-109.154375 27.113125 -108.30875 26.22625 -107.4375 25.3125 C-106.633125 24.549375 -105.82875 23.78625 -105 23 C-104.44183594 22.47019531 -103.88367188 21.94039062 -103.30859375 21.39453125 C-77.00339839 -2.67870814 -33.84676421 -12.36156949 0 0 Z M-100.51171875 42.1328125 C-116.97746346 61.10589981 -123.70997399 85.21015365 -122 110 C-119.29250475 132.6555015 -108.27359465 153.49443545 -90.5859375 167.9765625 C-79.5257708 176.42666036 -67.54079686 182.67173169 -54 186 C-53.15824219 186.22429687 -52.31648438 186.44859375 -51.44921875 186.6796875 C-28.13512683 191.97340044 -4.04891297 186.09279922 16.0546875 173.94140625 C36.36245075 160.55551986 49.84696344 140.78056736 55 117 C58.99036959 93.83911356 54.46972882 71.41408034 41.8671875 51.65625 C26.90161305 30.8439099 7.19886659 18.83001276 -17.7109375 13.41015625 C-49.46765782 9.44999516 -78.10652701 19.2049491 -100.51171875 42.1328125 Z " fill="#A2A2A2" transform="translate(263,128)"/>
<path d="M0 0 C0.66 0.33 1.32 0.66 2 1 C-3.28 6.28 -8.56 11.56 -14 17 C-14.66 16.67 -15.32 16.34 -16 16 C-11.03093773 10.1719243 -5.90436923 4.8836671 0 0 Z " fill="#757575" transform="translate(163,146)"/>
</svg>
